<svg id="Layer_1" data-name="Layer 1" xmlns="http://www.w3.org/2000/svg" width="1000" height="1000" viewBox="0 0 1000 1000"><title>placeholder-banner</title><circle cx="500" cy="500" r="500" fill="#d1d1d1"/><line x1="146" y1="146" x2="854" y2="854" fill="none" stroke="#c6c6c6" stroke-miterlimit="10" stroke-width="30"/><line x1="146" y1="855" x2="854" y2="147" fill="none" stroke="#c6c6c6" stroke-miterlimit="10" stroke-width="30"/><path d="M228.4,488.1V454.8h13.9a9.1,9.1,0,0,1,4.1.9,10.2,10.2,0,0,1,3.2,2.4,11.7,11.7,0,0,1,2.1,3.4,10.5,10.5,0,0,1,.8,3.9,11.5,11.5,0,0,1-.7,4,11,11,0,0,1-2,3.4,9.7,9.7,0,0,1-3.1,2.4,9,9,0,0,1-4,.9h-10v12Zm4.2-15.7h9.7a5.1,5.1,0,0,0,2.4-.5,5.4,5.4,0,0,0,1.8-1.5,7.4,7.4,0,0,0,1.2-2.2,8.4,8.4,0,0,0,.4-2.7,7.5,7.5,0,0,0-1.8-4.9,5.8,5.8,0,0,0-1.9-1.5,5.4,5.4,0,0,0-2.3-.5h-9.4Z"/><path d="M279,488.1V454.8h4.2v29.6h18.6v3.8Z"/><path d="M337.9,454.8h3.6l13.6,33.4h-4.5l-3.9-9.8h-14l-3.9,9.8h-4.5Zm7.8,20.3-6-15.4-6.2,15.4Z"/><path d="M377.5,471.2a17.8,17.8,0,0,1,1.1-6,16.7,16.7,0,0,1,3.1-5.4,15.6,15.6,0,0,1,5-3.8,15,15,0,0,1,6.7-1.5,14,14,0,0,1,7.7,2,12.6,12.6,0,0,1,4.7,5.3l-3.3,2.2a9.7,9.7,0,0,0-1.8-2.7,9.3,9.3,0,0,0-2.3-1.7,10,10,0,0,0-2.6-.9l-2.6-.3a10.2,10.2,0,0,0-4.9,1.2,11.3,11.3,0,0,0-3.6,3,13,13,0,0,0-2.2,4.2,15.6,15.6,0,0,0-.7,4.7,14.4,14.4,0,0,0,.9,5,13.8,13.8,0,0,0,2.4,4.2,11.8,11.8,0,0,0,3.7,2.9,10,10,0,0,0,4.6,1.1,11.7,11.7,0,0,0,2.7-.3,9.9,9.9,0,0,0,2.7-1.1,11.3,11.3,0,0,0,2.4-1.8,8.9,8.9,0,0,0,1.8-2.7l3.5,1.9a10.4,10.4,0,0,1-2.2,3.3,14.1,14.1,0,0,1-3.2,2.4,16.5,16.5,0,0,1-3.8,1.5,15.9,15.9,0,0,1-3.9.5,13.3,13.3,0,0,1-6.3-1.5,16.8,16.8,0,0,1-5-3.9,18.3,18.3,0,0,1-4.4-11.8Z"/><path d="M455.6,484.4v3.8H433V454.8h22.2v3.8h-18v10.8h15.7v3.5H437.2v11.5Z"/><path d="M509.5,454.8v33.4h-4.2V473H486.9v15.2h-4.2V454.8h4.2v14.4h18.4V454.8Z"/><path d="M552.4,488.4a14.2,14.2,0,0,1-6.4-1.4,15.8,15.8,0,0,1-5-3.8,17.3,17.3,0,0,1-3.2-5.4,17.9,17.9,0,0,1-1.1-6.3,17.4,17.4,0,0,1,1.2-6.4,17.6,17.6,0,0,1,3.3-5.4,15.9,15.9,0,0,1,5-3.7,14.3,14.3,0,0,1,6.3-1.4,13.7,13.7,0,0,1,6.4,1.5,16.4,16.4,0,0,1,4.9,3.9,18,18,0,0,1,4.3,11.6,17.3,17.3,0,0,1-1.2,6.4,17.6,17.6,0,0,1-3.3,5.4,15.8,15.8,0,0,1-5,3.7A14.3,14.3,0,0,1,552.4,488.4Zm-11.4-16.9a14.9,14.9,0,0,0,.8,4.9,13.6,13.6,0,0,0,2.3,4.2,11.3,11.3,0,0,0,3.6,2.9,10.2,10.2,0,0,0,4.7,1.1,9.9,9.9,0,0,0,4.8-1.2,11.7,11.7,0,0,0,3.6-3,13.5,13.5,0,0,0,2.3-4.2,15.1,15.1,0,0,0,.8-4.7,14.9,14.9,0,0,0-.8-4.9,13,13,0,0,0-2.4-4.2,11.8,11.8,0,0,0-3.6-2.9,10.6,10.6,0,0,0-9.4,0,11.6,11.6,0,0,0-3.6,3,13.5,13.5,0,0,0-2.3,4.2A14.8,14.8,0,0,0,540.9,471.5Z"/><path d="M595.3,488.1V454.8h4.2v29.6h18.6v3.8Z"/><path d="M644,488.1V454.8h11.6a17.5,17.5,0,0,1,7,1.3,14.3,14.3,0,0,1,5.1,3.6,14.9,14.9,0,0,1,3,5.3,20.3,20.3,0,0,1,1,6.5,19.9,19.9,0,0,1-1.1,6.9,14.8,14.8,0,0,1-3.2,5.3,14.5,14.5,0,0,1-5.1,3.4,17.7,17.7,0,0,1-6.7,1.2Zm23.4-16.7a16.7,16.7,0,0,0-.8-5.2,11.2,11.2,0,0,0-2.3-4.1,10.8,10.8,0,0,0-3.7-2.7,12.5,12.5,0,0,0-5-1h-7.3v25.9h7.3a12.5,12.5,0,0,0,5.1-1,10.2,10.2,0,0,0,3.7-2.7,12,12,0,0,0,2.3-4.1A16.5,16.5,0,0,0,667.4,471.4Z"/><path d="M721.6,484.4v3.8H698.9V454.8h22.2v3.8h-18v10.8h15.7v3.5H703.2v11.5Z"/><path d="M748.7,488.1V454.8H763a9.1,9.1,0,0,1,4.1.9,10.2,10.2,0,0,1,3.2,2.4,11.7,11.7,0,0,1,2.1,3.4,10.5,10.5,0,0,1,.8,3.9,11.5,11.5,0,0,1-.5,3.4,10.4,10.4,0,0,1-1.4,2.9,9.4,9.4,0,0,1-2.2,2.3,8.6,8.6,0,0,1-2.9,1.4l8.1,12.8h-4.8l-7.6-12h-8.8v12Zm4.2-15.7H763a5,5,0,0,0,2.4-.6,5.6,5.6,0,0,0,1.8-1.5,7.4,7.4,0,0,0,1.2-2.2,8.3,8.3,0,0,0,.4-2.6,7.1,7.1,0,0,0-.5-2.7,7.8,7.8,0,0,0-1.3-2.2,6,6,0,0,0-1.9-1.5,5.2,5.2,0,0,0-2.3-.5h-9.8Z"/><path d="M228.4,544.5V511.2h4.2v33.4Z"/><path d="M244.4,544.5V511.2h4.2v29.6h18.6v3.8Z"/><path d="M275.6,544.5V511.2h4.2v29.6h18.6v3.8Z"/><path d="M319.4,541a9.5,9.5,0,0,0,4.8-1.1,8.9,8.9,0,0,0,3.1-2.9,12.1,12.1,0,0,0,1.6-4.1,23.8,23.8,0,0,0,.5-4.7V511.2h4.2V528a25.8,25.8,0,0,1-.8,6.4,15.3,15.3,0,0,1-2.5,5.3,11.9,11.9,0,0,1-4.4,3.6,16.7,16.7,0,0,1-13.3-.1,12.2,12.2,0,0,1-4.4-3.7,15.2,15.2,0,0,1-2.4-5.4,26.6,26.6,0,0,1-.7-6.2V511.2h4.2V528a23.1,23.1,0,0,0,.5,4.8,12.2,12.2,0,0,0,1.6,4.1,8.8,8.8,0,0,0,3.1,2.9A9.4,9.4,0,0,0,319.4,541Z"/><path d="M364.5,518.2a7,7,0,0,0-1.5-1.3l-2.1-1.1-2.6-.8a13.4,13.4,0,0,0-2.9-.3q-3.9,0-5.7,1.5a4.9,4.9,0,0,0-1.8,4,4.4,4.4,0,0,0,.5,2.3,4.3,4.3,0,0,0,1.6,1.5,12.4,12.4,0,0,0,2.7,1.1l3.9,1a40.6,40.6,0,0,1,4.7,1.3,13.6,13.6,0,0,1,3.6,1.8,7.2,7.2,0,0,1,2.3,2.6,8.5,8.5,0,0,1,.8,3.8,8.7,8.7,0,0,1-.9,4.2,8.3,8.3,0,0,1-2.6,2.9,11.1,11.1,0,0,1-3.8,1.7,20.2,20.2,0,0,1-4.8.5,22.1,22.1,0,0,1-7.3-1.2,20.4,20.4,0,0,1-6.3-3.5l2-3.6a11.2,11.2,0,0,0,2,1.6,15.8,15.8,0,0,0,2.7,1.4,20,20,0,0,0,3.3,1,16.6,16.6,0,0,0,3.7.4,10.2,10.2,0,0,0,5.5-1.3,4.7,4.7,0,0,0,1.3-6.2A5.4,5.4,0,0,0,361,532a14.3,14.3,0,0,0-3-1.2l-4.1-1.1-4.5-1.3a12.1,12.1,0,0,1-3.2-1.7,6.4,6.4,0,0,1-2-2.4,7.9,7.9,0,0,1-.7-3.4,9.5,9.5,0,0,1,.9-4.2,8.9,8.9,0,0,1,2.5-3.1,10.9,10.9,0,0,1,3.8-1.9,18.5,18.5,0,0,1,10.9.4,17.1,17.1,0,0,1,4.8,2.8Z"/><path d="M401.4,514.9H389.9v29.6h-4.2V514.9H374.1v-3.8h27.3Z"/><path d="M409.9,544.5V511.2h14.3a9.1,9.1,0,0,1,4.1.9,10.2,10.2,0,0,1,3.2,2.4,11.7,11.7,0,0,1,2.1,3.4,10.5,10.5,0,0,1,.8,3.9,11.5,11.5,0,0,1-.5,3.4,10.4,10.4,0,0,1-1.4,2.9,9.4,9.4,0,0,1-2.2,2.3,8.6,8.6,0,0,1-2.9,1.4l8.1,12.8h-4.8l-7.6-12h-8.8v12Zm4.2-15.7h10.1a5,5,0,0,0,2.4-.6,5.6,5.6,0,0,0,1.8-1.5,7.4,7.4,0,0,0,1.2-2.2,8.3,8.3,0,0,0,.4-2.6,7.1,7.1,0,0,0-.5-2.7,7.8,7.8,0,0,0-1.3-2.2,6,6,0,0,0-1.9-1.5,5.2,5.2,0,0,0-2.3-.5h-9.8Z"/><path d="M454.7,511.2h3.6l13.6,33.4h-4.5l-3.9-9.8h-14l-3.9,9.8H441Zm7.8,20.3-6-15.4-6.2,15.4Z"/><path d="M501.1,514.9H489.5v29.6h-4.2V514.9H473.8v-3.8h27.3Z"/><path d="M509.6,544.5V511.2h4.2v33.4Z"/><path d="M539.1,544.8a14.2,14.2,0,0,1-6.4-1.4,15.8,15.8,0,0,1-5-3.8,17.3,17.3,0,0,1-3.2-5.4,17.9,17.9,0,0,1-1.1-6.3,17.4,17.4,0,0,1,1.2-6.4,17.6,17.6,0,0,1,3.3-5.4,16,16,0,0,1,5-3.7,14.3,14.3,0,0,1,6.3-1.4,13.7,13.7,0,0,1,6.4,1.5,16.4,16.4,0,0,1,4.9,3.9,18,18,0,0,1,4.3,11.6,17.3,17.3,0,0,1-1.2,6.4,17.6,17.6,0,0,1-3.3,5.4,15.8,15.8,0,0,1-5,3.7A14.3,14.3,0,0,1,539.1,544.8Zm-11.4-16.9a14.9,14.9,0,0,0,.8,4.9,13.6,13.6,0,0,0,2.3,4.2,11.3,11.3,0,0,0,3.6,2.9,10.2,10.2,0,0,0,4.7,1.1,9.9,9.9,0,0,0,4.8-1.2,11.7,11.7,0,0,0,3.6-3,13.5,13.5,0,0,0,2.3-4.2,15.1,15.1,0,0,0,.8-4.7,14.9,14.9,0,0,0-.8-4.9,13,13,0,0,0-2.4-4.2,11.8,11.8,0,0,0-3.6-2.9,10.6,10.6,0,0,0-9.4,0,11.6,11.6,0,0,0-3.6,3,13.5,13.5,0,0,0-2.3,4.2A14.8,14.8,0,0,0,527.7,527.9Z"/><path d="M568.7,519.1v25.5h-4.2V511.2h3.3l20.7,26V511.2h4.2v33.3h-3.6Z"/><path d="M628.9,511.2l-22.6,33.4h-4.6l22.5-33.4Z"/><path d="M638,544.5V511.2h4.2v29.6h18.6v3.8Z"/><path d="M681.7,544.8a14.2,14.2,0,0,1-6.4-1.4,15.8,15.8,0,0,1-5-3.8,17.3,17.3,0,0,1-3.2-5.4,17.9,17.9,0,0,1-1.1-6.3,17.4,17.4,0,0,1,1.2-6.4,17.6,17.6,0,0,1,3.3-5.4,16,16,0,0,1,5-3.7,14.3,14.3,0,0,1,6.3-1.4,13.7,13.7,0,0,1,6.4,1.5,16.4,16.4,0,0,1,4.9,3.9,18,18,0,0,1,4.3,11.6,17.3,17.3,0,0,1-1.2,6.4,17.6,17.6,0,0,1-3.3,5.4,15.8,15.8,0,0,1-5,3.7A14.3,14.3,0,0,1,681.7,544.8Zm-11.4-16.9a14.9,14.9,0,0,0,.8,4.9,13.6,13.6,0,0,0,2.3,4.2,11.3,11.3,0,0,0,3.6,2.9,10.2,10.2,0,0,0,4.7,1.1,9.9,9.9,0,0,0,4.8-1.2,11.7,11.7,0,0,0,3.6-3,13.5,13.5,0,0,0,2.3-4.2,15.1,15.1,0,0,0,.8-4.7,14.9,14.9,0,0,0-.8-4.9,13,13,0,0,0-2.4-4.2,11.8,11.8,0,0,0-3.6-2.9,10.6,10.6,0,0,0-9.4,0,11.6,11.6,0,0,0-3.6,3,13.5,13.5,0,0,0-2.3,4.2A14.8,14.8,0,0,0,670.3,527.9Z"/><path d="M730.6,540a13.5,13.5,0,0,1-10.2,4.7,13.3,13.3,0,0,1-6.2-1.5,16.3,16.3,0,0,1-4.9-3.8,18.4,18.4,0,0,1-3.3-5.4,17.1,17.1,0,0,1-1.2-6.3,17.7,17.7,0,0,1,4.4-11.8,15.4,15.4,0,0,1,4.9-3.7,14.3,14.3,0,0,1,6.2-1.4,14.4,14.4,0,0,1,8,2,13.4,13.4,0,0,1,4.8,5.3l-3.2,2.3a10.1,10.1,0,0,0-4-4.3,11.2,11.2,0,0,0-5.6-1.4,9.6,9.6,0,0,0-4.6,1.1,11.3,11.3,0,0,0-3.5,2.9A13.4,13.4,0,0,0,710,523a15.3,15.3,0,0,0-.8,4.9,14.2,14.2,0,0,0,.9,5.1,13.8,13.8,0,0,0,2.4,4.2,11.3,11.3,0,0,0,3.7,2.8,10.3,10.3,0,0,0,4.6,1q5.5,0,9.8-5.3v-4.6h-7.2v-3.2h10.8v16.6h-3.6Z"/><path d="M757.9,544.8a14.2,14.2,0,0,1-6.4-1.4,15.8,15.8,0,0,1-5-3.8,17.3,17.3,0,0,1-3.2-5.4,17.9,17.9,0,0,1-1.1-6.3,17.4,17.4,0,0,1,1.2-6.4,17.6,17.6,0,0,1,3.3-5.4,16,16,0,0,1,5-3.7,14.3,14.3,0,0,1,6.3-1.4,13.7,13.7,0,0,1,6.4,1.5,16.4,16.4,0,0,1,4.9,3.9,18,18,0,0,1,4.3,11.6,17.3,17.3,0,0,1-1.2,6.4,17.6,17.6,0,0,1-3.3,5.4,15.8,15.8,0,0,1-5,3.7A14.3,14.3,0,0,1,757.9,544.8Zm-11.4-16.9a14.9,14.9,0,0,0,.8,4.9,13.6,13.6,0,0,0,2.3,4.2,11.3,11.3,0,0,0,3.6,2.9A10.2,10.2,0,0,0,758,541a9.9,9.9,0,0,0,4.8-1.2,11.7,11.7,0,0,0,3.6-3,13.5,13.5,0,0,0,2.3-4.2,15.1,15.1,0,0,0,.8-4.7,14.9,14.9,0,0,0-.8-4.9,13,13,0,0,0-2.4-4.2,11.8,11.8,0,0,0-3.6-2.9,10.6,10.6,0,0,0-9.4,0,11.6,11.6,0,0,0-3.6,3,13.5,13.5,0,0,0-2.3,4.2A14.8,14.8,0,0,0,746.5,527.9Z"/><line x1="130" y1="500" x2="181" y2="500" fill="none" stroke="#3f3f3f" stroke-miterlimit="10" stroke-width="1.62"/><line x1="813" y1="500" x2="864" y2="500" fill="none" stroke="#3f3f3f" stroke-miterlimit="10" stroke-width="1.62"/></svg>