<svg id="Layer_1" data-name="Layer 1" xmlns="http://www.w3.org/2000/svg" width="500.9" height="500.9" viewBox="0 0 500.9 500.9"><title>placeholder-banner</title><circle cx="250.5" cy="251.5" r="250.5" fill="#d1d1d1"/><line x1="73.1" y1="74.1" x2="427.9" y2="428.9" fill="none" stroke="#c6c6c6" stroke-miterlimit="10" stroke-width="15.03"/><line x1="73.1" y1="429.4" x2="427.9" y2="74.6" fill="none" stroke="#c6c6c6" stroke-miterlimit="10" stroke-width="15.03"/><path d="M114.5,245.6V228.8h7a4.5,4.5,0,0,1,2,.5,5.1,5.1,0,0,1,1.6,1.2,5.9,5.9,0,0,1,1,1.7,5.2,5.2,0,0,1,.4,1.9,5.8,5.8,0,0,1-.4,2,5.5,5.5,0,0,1-1,1.7,4.9,4.9,0,0,1-1.6,1.2,4.5,4.5,0,0,1-2,.4h-5v6Zm2.1-7.9h4.9a2.6,2.6,0,0,0,1.2-.3,2.7,2.7,0,0,0,.9-.8,3.7,3.7,0,0,0,.6-1.1,4.2,4.2,0,0,0,.2-1.3,3.8,3.8,0,0,0-.9-2.5,2.9,2.9,0,0,0-1-.7l-1.2-.3h-4.7Z"/><path d="M139.8,245.6V228.8h2.1v14.8h9.3v1.9Z"/><path d="M169.3,228.8h1.8l6.8,16.7h-2.3l-2-4.9h-7l-2,4.9h-2.3Zm3.9,10.2-3-7.7-3.1,7.7Z"/><path d="M189.1,237.1a8.9,8.9,0,0,1,.5-3,8.3,8.3,0,0,1,1.6-2.7,7.8,7.8,0,0,1,2.5-1.9,7.5,7.5,0,0,1,3.4-.7,7,7,0,0,1,3.8,1,6.3,6.3,0,0,1,2.4,2.6l-1.7,1.1a4.9,4.9,0,0,0-.9-1.3l-1.2-.9-1.3-.5H197a5.1,5.1,0,0,0-2.5.6,5.7,5.7,0,0,0-1.8,1.5,6.5,6.5,0,0,0-1.1,2.1,7.8,7.8,0,0,0-.4,2.3,7.2,7.2,0,0,0,.4,2.5,6.9,6.9,0,0,0,1.2,2.1,5.9,5.9,0,0,0,1.8,1.5,5,5,0,0,0,2.3.5l1.4-.2,1.3-.5,1.2-.9a4.5,4.5,0,0,0,.9-1.3l1.8,1a5.2,5.2,0,0,1-1.1,1.7,7.1,7.1,0,0,1-1.6,1.2l-1.9.8-2,.3a6.7,6.7,0,0,1-3.2-.8,8.4,8.4,0,0,1-2.5-2,9,9,0,0,1-1.6-2.8A8.9,8.9,0,0,1,189.1,237.1Z"/><path d="M228.3,243.7v1.9H216.9V228.8h11.1v1.9h-9v5.4h7.8v1.8H219v5.8Z"/><path d="M255.3,228.8v16.7h-2.1V238H244v7.6h-2.1V228.8H244v7.2h9.2v-7.2Z"/><path d="M276.7,245.7a7.1,7.1,0,0,1-3.2-.7,7.9,7.9,0,0,1-2.5-1.9,8.7,8.7,0,0,1-1.6-2.7,9,9,0,0,1-.6-3.1,8.7,8.7,0,0,1,.6-3.2,8.8,8.8,0,0,1,1.7-2.7,8,8,0,0,1,2.5-1.9,7.2,7.2,0,0,1,3.1-.7,6.9,6.9,0,0,1,3.2.7,8.2,8.2,0,0,1,2.5,1.9,9,9,0,0,1,2.2,5.8,8.7,8.7,0,0,1-.6,3.2,8.8,8.8,0,0,1-1.6,2.7,7.9,7.9,0,0,1-2.5,1.9A7.2,7.2,0,0,1,276.7,245.7Zm-5.7-8.5a7.5,7.5,0,0,0,.4,2.5,6.8,6.8,0,0,0,1.2,2.1,5.6,5.6,0,0,0,1.8,1.5,5.1,5.1,0,0,0,2.4.5,4.9,4.9,0,0,0,2.4-.6,5.9,5.9,0,0,0,1.8-1.5,6.7,6.7,0,0,0,1.1-2.1,7.6,7.6,0,0,0,.4-2.4,7.5,7.5,0,0,0-.4-2.5,6.5,6.5,0,0,0-1.2-2.1,5.9,5.9,0,0,0-1.8-1.4,5.3,5.3,0,0,0-4.7,0,5.8,5.8,0,0,0-1.8,1.5,6.8,6.8,0,0,0-1.1,2.1A7.4,7.4,0,0,0,271,237.2Z"/><path d="M298.2,245.6V228.8h2.1v14.8h9.3v1.9Z"/><path d="M322.6,245.6V228.8h5.8a8.8,8.8,0,0,1,3.5.7,7.2,7.2,0,0,1,2.5,1.8,7.5,7.5,0,0,1,1.5,2.6,10.2,10.2,0,0,1,.5,3.2,10,10,0,0,1-.6,3.5,7.4,7.4,0,0,1-1.6,2.6,7.3,7.3,0,0,1-2.6,1.7,8.9,8.9,0,0,1-3.3.6Zm11.7-8.4a8.3,8.3,0,0,0-.4-2.6,5.6,5.6,0,0,0-1.2-2,5.4,5.4,0,0,0-1.9-1.3,6.2,6.2,0,0,0-2.5-.5h-3.7v13h3.7a6.3,6.3,0,0,0,2.6-.5,5.1,5.1,0,0,0,1.9-1.4,6,6,0,0,0,1.1-2.1A8.2,8.2,0,0,0,334.4,237.2Z"/><path d="M361.5,243.7v1.9H350.2V228.8h11.1v1.9h-9v5.4h7.8v1.8h-7.8v5.8Z"/><path d="M375.1,245.6V228.8h7.2a4.5,4.5,0,0,1,2,.5,5.1,5.1,0,0,1,1.6,1.2,5.9,5.9,0,0,1,1,1.7,5.2,5.2,0,0,1,.4,1.9,5.7,5.7,0,0,1-.2,1.7,5.2,5.2,0,0,1-.7,1.5,4.7,4.7,0,0,1-1.1,1.1,4.3,4.3,0,0,1-1.4.7l4.1,6.4h-2.4l-3.8-6h-4.4v6Zm2.1-7.9h5.1a2.5,2.5,0,0,0,1.2-.3,2.8,2.8,0,0,0,.9-.8,3.7,3.7,0,0,0,.6-1.1,4.1,4.1,0,0,0,.2-1.3,3.6,3.6,0,0,0-.2-1.3,3.9,3.9,0,0,0-.7-1.1,3,3,0,0,0-1-.8l-1.2-.3h-4.9Z"/><path d="M114.5,273.8V257.1h2.1v16.7Z"/><path d="M122.5,273.8V257.1h2.1v14.8h9.3v1.9Z"/><path d="M138.1,273.8V257.1h2.1v14.8h9.3v1.9Z"/><path d="M160,272a4.7,4.7,0,0,0,2.4-.6A4.5,4.5,0,0,0,164,270a6.1,6.1,0,0,0,.8-2.1,11.9,11.9,0,0,0,.2-2.4v-8.5h2.1v8.5a12.9,12.9,0,0,1-.4,3.2,7.7,7.7,0,0,1-1.2,2.7,6,6,0,0,1-2.2,1.8,8.4,8.4,0,0,1-6.7,0,6.1,6.1,0,0,1-2.2-1.9,7.6,7.6,0,0,1-1.2-2.7,13.3,13.3,0,0,1-.4-3.1v-8.5H155v8.5a11.6,11.6,0,0,0,.2,2.4,6.1,6.1,0,0,0,.8,2.1,4.4,4.4,0,0,0,1.5,1.4A4.7,4.7,0,0,0,160,272Z"/><path d="M182.6,260.6l-.8-.6-1.1-.6-1.3-.4-1.4-.2a4.5,4.5,0,0,0-2.9.7,2.4,2.4,0,0,0-.9,2,2.2,2.2,0,0,0,.3,1.1,2.1,2.1,0,0,0,.8.8l1.4.6,2,.5,2.3.6a6.8,6.8,0,0,1,1.8.9,3.6,3.6,0,0,1,1.1,1.3,4.2,4.2,0,0,1,.4,1.9,4.4,4.4,0,0,1-.5,2.1,4.2,4.2,0,0,1-1.3,1.5,5.5,5.5,0,0,1-1.9.8l-2.4.3a11.1,11.1,0,0,1-3.7-.6,10.2,10.2,0,0,1-3.1-1.8l1-1.8,1,.8,1.4.7,1.6.5,1.8.2a5.1,5.1,0,0,0,2.8-.6,2.4,2.4,0,0,0,.7-3.1,2.7,2.7,0,0,0-.9-.8l-1.5-.6-2.1-.6-2.2-.7a6.1,6.1,0,0,1-1.6-.8,3.2,3.2,0,0,1-1-1.2,4,4,0,0,1-.3-1.7,4.8,4.8,0,0,1,.4-2.1,4.4,4.4,0,0,1,1.2-1.6,5.4,5.4,0,0,1,1.9-1,9.3,9.3,0,0,1,5.5.2,8.6,8.6,0,0,1,2.4,1.4Z"/><path d="M201.1,259h-5.8v14.8h-2.1V259h-5.8v-1.9h13.7Z"/><path d="M205.4,273.8V257.1h7.2a4.5,4.5,0,0,1,2,.5,5.1,5.1,0,0,1,1.6,1.2,5.9,5.9,0,0,1,1,1.7,5.2,5.2,0,0,1,.4,1.9,5.7,5.7,0,0,1-.2,1.7,5.2,5.2,0,0,1-.7,1.5,4.7,4.7,0,0,1-1.1,1.1,4.3,4.3,0,0,1-1.4.7l4.1,6.4h-2.4l-3.8-6h-4.4v6Zm2.1-7.9h5.1a2.5,2.5,0,0,0,1.2-.3,2.8,2.8,0,0,0,.9-.8,3.7,3.7,0,0,0,.6-1.1,4.1,4.1,0,0,0,.2-1.3,3.6,3.6,0,0,0-.2-1.3,3.9,3.9,0,0,0-.7-1.1,3,3,0,0,0-1-.8l-1.2-.3h-4.9Z"/><path d="M227.8,257.1h1.8l6.8,16.7h-2.3l-2-4.9h-7l-2,4.9H221Zm3.9,10.2-3-7.7-3.1,7.7Z"/><path d="M251,259h-5.8v14.8h-2.1V259h-5.8v-1.9H251Z"/><path d="M255.3,273.8V257.1h2.1v16.7Z"/><path d="M270.1,273.9a7.1,7.1,0,0,1-3.2-.7,7.9,7.9,0,0,1-2.5-1.9,8.7,8.7,0,0,1-1.6-2.7,9,9,0,0,1-.6-3.1,8.7,8.7,0,0,1,.6-3.2,8.8,8.8,0,0,1,1.7-2.7,8,8,0,0,1,2.5-1.9,7.2,7.2,0,0,1,3.1-.7,6.9,6.9,0,0,1,3.2.7,8.2,8.2,0,0,1,2.5,1.9,9,9,0,0,1,2.2,5.8,8.7,8.7,0,0,1-.6,3.2,8.8,8.8,0,0,1-1.6,2.7,7.9,7.9,0,0,1-2.5,1.9A7.2,7.2,0,0,1,270.1,273.9Zm-5.7-8.5a7.5,7.5,0,0,0,.4,2.5A6.8,6.8,0,0,0,266,270a5.6,5.6,0,0,0,1.8,1.5,5.1,5.1,0,0,0,2.4.5,4.9,4.9,0,0,0,2.4-.6,5.9,5.9,0,0,0,1.8-1.5,6.7,6.7,0,0,0,1.1-2.1,7.6,7.6,0,0,0,.4-2.4,7.5,7.5,0,0,0-.4-2.5,6.5,6.5,0,0,0-1.2-2.1,5.9,5.9,0,0,0-1.8-1.4,5.3,5.3,0,0,0-4.7,0,5.8,5.8,0,0,0-1.8,1.5,6.8,6.8,0,0,0-1.1,2.1A7.4,7.4,0,0,0,264.4,265.5Z"/><path d="M284.9,261.1v12.8h-2.1V257.1h1.6l10.4,13v-13h2.1v16.7h-1.8Z"/><path d="M315.1,257.1l-11.3,16.7h-2.3l11.3-16.7Z"/><path d="M319.6,273.8V257.1h2.1v14.8h9.3v1.9Z"/><path d="M341.5,273.9a7.1,7.1,0,0,1-3.2-.7,7.9,7.9,0,0,1-2.5-1.9,8.7,8.7,0,0,1-1.6-2.7,9,9,0,0,1-.6-3.1,8.7,8.7,0,0,1,.6-3.2,8.8,8.8,0,0,1,1.7-2.7,8,8,0,0,1,2.5-1.9,7.2,7.2,0,0,1,3.1-.7,6.9,6.9,0,0,1,3.2.7,8.2,8.2,0,0,1,2.5,1.9,9,9,0,0,1,2.2,5.8,8.7,8.7,0,0,1-.6,3.2,8.8,8.8,0,0,1-1.6,2.7,7.9,7.9,0,0,1-2.5,1.9A7.2,7.2,0,0,1,341.5,273.9Zm-5.7-8.5a7.5,7.5,0,0,0,.4,2.5,6.8,6.8,0,0,0,1.2,2.1,5.6,5.6,0,0,0,1.8,1.5,5.1,5.1,0,0,0,2.4.5,4.9,4.9,0,0,0,2.4-.6,5.9,5.9,0,0,0,1.8-1.5,6.7,6.7,0,0,0,1.1-2.1,7.6,7.6,0,0,0,.4-2.4,7.5,7.5,0,0,0-.4-2.5,6.5,6.5,0,0,0-1.2-2.1,5.9,5.9,0,0,0-1.8-1.4,5.3,5.3,0,0,0-4.7,0,5.8,5.8,0,0,0-1.8,1.5,6.8,6.8,0,0,0-1.1,2.1A7.4,7.4,0,0,0,335.8,265.5Z"/><path d="M366,271.6a6.8,6.8,0,0,1-5.1,2.4,6.7,6.7,0,0,1-3.1-.7,8.2,8.2,0,0,1-2.5-1.9,9.2,9.2,0,0,1-1.6-2.7,8.6,8.6,0,0,1-.6-3.2,8.9,8.9,0,0,1,2.2-5.9,7.7,7.7,0,0,1,2.5-1.8,7.1,7.1,0,0,1,3.1-.7,7.2,7.2,0,0,1,4,1,6.7,6.7,0,0,1,2.4,2.6l-1.6,1.1a5.1,5.1,0,0,0-2-2.2,5.6,5.6,0,0,0-2.8-.7,4.8,4.8,0,0,0-2.3.6,5.7,5.7,0,0,0-1.8,1.5,6.7,6.7,0,0,0-1.1,2.1,7.7,7.7,0,0,0-.4,2.5,7.1,7.1,0,0,0,.4,2.5,6.9,6.9,0,0,0,1.2,2.1,5.7,5.7,0,0,0,1.8,1.4,5.2,5.2,0,0,0,2.3.5,6.3,6.3,0,0,0,4.9-2.6v-2.3h-3.6v-1.6h5.4v8.3H366Z"/><path d="M379.7,273.9a7.1,7.1,0,0,1-3.2-.7,7.9,7.9,0,0,1-2.5-1.9,8.7,8.7,0,0,1-1.6-2.7,9,9,0,0,1-.6-3.1,8.7,8.7,0,0,1,.6-3.2,8.8,8.8,0,0,1,1.7-2.7,8,8,0,0,1,2.5-1.9,7.2,7.2,0,0,1,3.1-.7,6.9,6.9,0,0,1,3.2.7,8.2,8.2,0,0,1,2.5,1.9,9,9,0,0,1,2.2,5.8,8.7,8.7,0,0,1-.6,3.2,8.8,8.8,0,0,1-1.6,2.7,7.9,7.9,0,0,1-2.5,1.9A7.2,7.2,0,0,1,379.7,273.9Zm-5.7-8.5a7.5,7.5,0,0,0,.4,2.5,6.8,6.8,0,0,0,1.2,2.1,5.6,5.6,0,0,0,1.8,1.5,5.1,5.1,0,0,0,2.4.5,4.9,4.9,0,0,0,2.4-.6,5.9,5.9,0,0,0,1.8-1.5,6.7,6.7,0,0,0,1.1-2.1,7.6,7.6,0,0,0,.4-2.4,7.5,7.5,0,0,0-.4-2.5,6.5,6.5,0,0,0-1.2-2.1,5.9,5.9,0,0,0-1.8-1.4,5.3,5.3,0,0,0-4.7,0,5.8,5.8,0,0,0-1.8,1.5,6.8,6.8,0,0,0-1.1,2.1A7.4,7.4,0,0,0,374,265.5Z"/><line x1="65.1" y1="251.5" x2="90.7" y2="251.5" fill="none" stroke="#3f3f3f" stroke-miterlimit="10" stroke-width="0.81"/><line x1="407.3" y1="251.5" x2="432.9" y2="251.5" fill="none" stroke="#3f3f3f" stroke-miterlimit="10" stroke-width="0.81"/></svg>