<svg xmlns="http://www.w3.org/2000/svg" width="5in" height="5in" viewBox="0 0 360 360"><path fill="#fff" d="M85.8 108.1h-27v48.5h30.6L87.8 167H47.4V47h40.1v10.6H58.9v40.1h27zm69.3 7.5c0-22.3.4-45.7.7-58.2h-.2c-3.1 20-12.8 73.7-19.6 109.7h-11.3c-5-30.7-15.1-88.5-18-109.8h-.4c.4 14 .9 41.2.9 61.8v48H96.4V47h17.1c7 36.7 15.5 82.9 17.1 98h.2c2-14.6 11.7-63.5 18.7-98h16.7v120.1h-11.1zm84.1 0c0-22.3.4-45.7.7-58.2h-.2c-3.1 20-12.8 73.7-19.6 109.7h-11.3c-5-30.7-15.1-88.5-18-109.8h-.4c.4 14 .9 41.2.9 61.8v48h-10.7V47h17.1c7 36.7 15.5 82.9 17.1 98h.2c2-14.6 11.7-63.5 18.7-98h16.7v120.1h-11.2zm35.2 11.7l-6.1 39.7h-11.5l19.8-120H293l20.7 120.1h-12l-6.5-39.7zm19.2-10.6c-4.7-27.9-7.7-48.5-8.8-59.3h-.5c-.4 9.2-4.9 36.5-8.3 59.3zM47.4 189.1h20c18 0 26.4 7.9 26.4 27.3v5.8c0 15.8-5.2 22.8-12.2 25.3 7.7 2.7 11.1 8.6 11.1 24.6 0 10.2-.2 29.3 1.3 37H82.8c-1.6-7.6-1.3-27.9-1.3-36.1 0-15.8-2.3-20.5-14.4-20.5h-8.2v56.6H47.4zm11.5 53.6h8.6c11.9 0 14.7-7.2 14.7-20v-5.6c0-11.5-3.2-18.2-15.6-18.2h-7.7zm78 66.5v-45.3a7.7 7.7 0 0 0-.5-3.1l-21.9-71.7H127c6.1 22.3 13.7 48.9 15.8 59.5h.2c2.2-11 10.1-38.3 15.8-59.5h12l-22.1 72.3a15.2 15.2 0 0 0-.4 3.4v44.4zm60.4-39.7l-6.1 39.7h-11.5l19.8-120.1h16.4l20.7 120.1h-12l-6.6-39.7zm19.2-10.6c-4.7-27.9-7.7-48.5-8.8-59.3h-.5c-.4 9.2-4.9 36.5-8.3 59.3zm44.8 50.3V189.1h13.8l21.4 76.6a216.3 216.3 0 0 1 4.9 21.2h.4c-.7-16.4-.9-33.3-.9-52.9v-44.9h10.8v120.1h-13.4L274.4 222c-1.6-6.1-2.5-10.8-3.1-14h-.2c.7 14.4 1.1 34.3 1.1 56.1v45.1z"/><path fill="none" stroke="#fff" stroke-linecap="round" stroke-linejoin="round" stroke-width="9.99" d="M22 18.6h315.6v315.65H22z"/></svg>